<svg xmlns="http://www.w3.org/2000/svg" viewBox="0 0 24 24" width="24" height="24" shape-rendering="crispEdges">
  <!-- Sword 1 Diagonal -->
  <path d="M18 2h4v4h-2v2h-2v2h-2v2h-2v2h-2v2h-2v2h-2v2H6v-4h2v-2h2v-2h2v-2h2V8h2V6h2V4h2V2z" fill="#78909c"/>
  <path d="M19 3h2v2h-2zM17 5h2v2h-2zM15 7h2v2h-2zM13 9h2v2h-2zM11 11h2v2h-2z" fill="#cfd8dc"/>
  <path d="M4 18h4v4H4z" fill="#d32f2f"/>
  <!-- Sword 2 Diagonal -->
  <path d="M2 2h4v4H4v2H2v2h4v2h2v2h2v2h2v2h2v4h-4v-2h-2v-2h-2v-2H8v-2H6V8H4V6H2V2z" fill="#78909c"/>
  <path d="M3 3h2v2H3zM5 5h2v2H5zM7 7h2v2H7zM9 9h2v2H9z" fill="#cfd8dc"/>
  <path d="M16 18h4v4h-4z" fill="#d32f2f"/>
</svg>
